<svg xmlns="http://www.w3.org/2000/svg" viewBox="0 0 24 24" fill="none" aria-label="settings">
  <path d="M19.4 13.3a7.5 7.5 0 0 0 .1-2.6l2-1.5-2-3.5-2.5.7a7.8 7.8 0 0 0-2.2-1.3L14.4 2h-4.1l-.4 3.1a7.8 7.8 0 0 0-2.2 1.3l-2.5-.7-2 3.5 2 1.5a7.5 7.5 0 0 0 .1 2.6l-2 1.5 2 3.5 2.5-.7a7.8 7.8 0 0 0 2.2 1.3l.4 3.1h4.1l.4-3.1a7.8 7.8 0 0 0 2.2-1.3l2.5.7 2-3.5-2-1.5Z" stroke="currentColor" stroke-width="1.9" stroke-linecap="round" stroke-linejoin="round"/>
  <circle cx="12" cy="12" r="2.9" stroke="currentColor" stroke-width="1.9"/>
</svg>
